<?xml version="1.0" encoding="UTF-8" standalone="no"?>
<!-- Created with Inkscape (http://www.inkscape.org/) -->

<svg
   width="368.65463mm"
   height="86.851997mm"
   viewBox="0 0 368.65463 86.851997"
   version="1.1"
   id="svg5"
   inkscape:version="1.1.1 (3bf5ae0d25, 2021-09-20)"
   sodipodi:docname="Icons.svg"
   inkscape:export-filename="E:\heero\LargeFiles\Repositories\TofangGuessr\Assets\Sprites\Logo.png"
   inkscape:export-xdpi="400"
   inkscape:export-ydpi="400"
   xmlns:inkscape="http://www.inkscape.org/namespaces/inkscape"
   xmlns:sodipodi="http://sodipodi.sourceforge.net/DTD/sodipodi-0.dtd"
   xmlns="http://www.w3.org/2000/svg"
   xmlns:svg="http://www.w3.org/2000/svg">
  <sodipodi:namedview
     id="namedview7"
     pagecolor="#ffffff"
     bordercolor="#666666"
     borderopacity="1.0"
     inkscape:pageshadow="2"
     inkscape:pageopacity="0.0"
     inkscape:pagecheckerboard="0"
     inkscape:document-units="mm"
     showgrid="false"
     inkscape:zoom="0.40567375"
     inkscape:cx="481.91435"
     inkscape:cy="215.69057"
     inkscape:window-width="1920"
     inkscape:window-height="1027"
     inkscape:window-x="-8"
     inkscape:window-y="-8"
     inkscape:window-maximized="1"
     inkscape:current-layer="layer1" />
  <defs
     id="defs2">
    <inkscape:path-effect
       effect="bspline"
       id="path-effect1279"
       is_visible="true"
       lpeversion="1"
       weight="33.333333"
       steps="2"
       helper_size="0"
       apply_no_weight="true"
       apply_with_weight="true"
       only_selected="false" />
    <inkscape:path-effect
       effect="spiro"
       id="path-effect878"
       is_visible="true"
       lpeversion="1" />
  </defs>
  <g
     inkscape:label="Layer 1"
     inkscape:groupmode="layer"
     id="layer1"
     transform="translate(-2.5513004,-171.59631)">
    <ellipse
       style="fill:#ffc3c3;fill-opacity:1;fill-rule:evenodd;stroke:#510808;stroke-width:4.99999;stroke-linecap:round;stroke-linejoin:round;stroke-miterlimit:4;stroke-dasharray:none;stroke-opacity:1;paint-order:markers fill stroke"
       id="path43850"
       cx="184.23038"
       cy="215.02231"
       rx="37.828014"
       ry="40.926003" />
    <path
       id="path1057"
       style="fill:#ffc3c3;fill-opacity:1;fill-rule:evenodd;stroke:#510808;stroke-width:5;stroke-linecap:round;stroke-miterlimit:4;stroke-dasharray:none;stroke-opacity:1;paint-order:markers fill stroke"
       d="m 23.374223,12.567158 c 0,5.522847 -10,20.030668 -10,20.030668 0,0 -10.0000001,-14.507821 -10.0000001,-20.030668 -2e-7,-5.5228475 4.4771522,-10.0000001 10.0000001,-10.0000003 5.522848,0 10,4.4771527 10,10.0000003 z"
       sodipodi:nodetypes="scsss"
       inkscape:export-filename="E:\heero\LargeFiles\Repositories\TofangGuessr\Assets\Sprites\Pin.png"
       inkscape:export-xdpi="400"
       inkscape:export-ydpi="400" />
    <path
       id="path1809"
       style="fill:#21c454;fill-opacity:1;fill-rule:evenodd;stroke:#085223;stroke-width:5;stroke-linecap:round;stroke-miterlimit:4;stroke-dasharray:none;stroke-opacity:1;paint-order:markers fill stroke"
       d="m 52.543865,12.567158 c 0,5.522847 -10,20.030668 -10,20.030668 0,0 -9.999999,-14.507821 -9.999999,-20.030668 0,-5.5228475 4.477152,-10.0000001 9.999999,-10.0000003 5.522848,0 10,4.4771527 10,10.0000003 z"
       sodipodi:nodetypes="scsss"
       inkscape:export-filename="E:\heero\LargeFiles\Repositories\TofangGuessr\Assets\Sprites\GreenPin.png"
       inkscape:export-xdpi="400"
       inkscape:export-ydpi="400" />
    <rect
       style="fill:#ffc3c3;fill-opacity:1;fill-rule:evenodd;stroke:#510808;stroke-width:4.99999;stroke-linecap:round;stroke-miterlimit:4;stroke-dasharray:none;stroke-opacity:1;paint-order:markers fill stroke"
       id="rect16703"
       width="20"
       height="20"
       x="3.1129661"
       y="45.195652"
       rx="5"
       ry="5"
       inkscape:export-filename="E:\heero\LargeFiles\Repositories\TofangGuessr\Assets\Sprites\ButtonUnpressed.png"
       inkscape:export-xdpi="400"
       inkscape:export-ydpi="400" />
    <rect
       style="fill:#ffffff;fill-opacity:0;fill-rule:evenodd;stroke:#ffc3c3;stroke-width:4.99999;stroke-linecap:round;stroke-miterlimit:4;stroke-dasharray:none;stroke-opacity:1;paint-order:markers fill stroke"
       id="rect19198"
       width="20"
       height="20"
       x="30.913298"
       y="45.684807"
       rx="5"
       ry="5"
       inkscape:export-filename="E:\heero\LargeFiles\Repositories\TofangGuessr\Assets\Sprites\ButtonPressed.png"
       inkscape:export-xdpi="400"
       inkscape:export-ydpi="400" />
    <g
       id="g47016">
      <path
         id="path1057-3"
         style="fill:#ffc3c3;fill-opacity:1;fill-rule:evenodd;stroke:#510808;stroke-width:5;stroke-linecap:round;stroke-miterlimit:4;stroke-dasharray:none;stroke-opacity:1;paint-order:markers fill stroke"
         d="m 58.265385,208.00085 c 0,6.50689 -11.958675,23.59967 -11.958675,23.59967 0,0 -11.958675,-17.09278 -11.958675,-23.59967 0,-6.50689 5.354081,-11.78177 11.958675,-11.78177 6.604595,0 11.958675,5.27488 11.958675,11.78177 z"
         sodipodi:nodetypes="scsss"
         inkscape:export-filename="E:\heero\LargeFiles\Repositories\TofangGuessr\Assets\Sprites\Pin.png"
         inkscape:export-xdpi="400"
         inkscape:export-ydpi="400" />
      <path
         d="m 31.320831,206.10629 h -8.535156 v 23.14453 H 15.930206 V 206.10629 H 7.5513004 v -5.29296 H 31.320831 Z"
         style="font-weight:900;font-size:40px;line-height:1.25;font-family:Roboto;-inkscape-font-specification:'Roboto Heavy';fill:#ffc3c3;fill-opacity:1;stroke:#510808;stroke-width:10;stroke-linecap:round;stroke-linejoin:round;stroke-miterlimit:4;stroke-dasharray:none;stroke-opacity:1;paint-order:stroke fill markers"
         id="path33625" />
      <path
         d="M 79.191925,217.9227 H 68.137238 v 11.32812 h -6.855469 v -28.43749 h 19.023437 v 5.29296 H 68.137238 v 6.54297 h 11.054687 z"
         style="font-weight:900;font-size:40px;line-height:1.25;font-family:Roboto;-inkscape-font-specification:'Roboto Heavy';fill:#ffc3c3;fill-opacity:1;stroke:#510808;stroke-width:10;stroke-linecap:round;stroke-linejoin:round;stroke-miterlimit:4;stroke-dasharray:none;stroke-opacity:1;paint-order:stroke fill markers"
         id="path33629" />
      <path
         d="m 95.559113,223.93832 h -9.394532 l -1.640625,5.3125 h -7.324218 l 10.429687,-28.43749 h 6.445313 l 10.507812,28.43749 h -7.363281 z m -7.753907,-5.29297 h 6.113282 l -3.066407,-9.86327 z"
         style="font-weight:900;font-size:40px;line-height:1.25;font-family:Roboto;-inkscape-font-specification:'Roboto Heavy';fill:#ffc3c3;fill-opacity:1;stroke:#510808;stroke-width:10;stroke-linecap:round;stroke-linejoin:round;stroke-miterlimit:4;stroke-dasharray:none;stroke-opacity:1;paint-order:stroke fill markers"
         id="path33631" />
      <path
         d="m 130.40287,229.25082 h -6.81641 l -10.07813,-17.69531 v 17.69531 h -6.85546 v -28.43749 h 6.85546 l 10.0586,17.69531 v -17.69531 h 6.83594 z"
         style="font-weight:900;font-size:40px;line-height:1.25;font-family:Roboto;-inkscape-font-specification:'Roboto Heavy';fill:#ffc3c3;fill-opacity:1;stroke:#510808;stroke-width:10;stroke-linecap:round;stroke-linejoin:round;stroke-miterlimit:4;stroke-dasharray:none;stroke-opacity:1;paint-order:stroke fill markers"
         id="path33633" />
      <path
         d="m 158.02005,225.7352 q -1.58203,1.75781 -4.6289,2.83203 -3.04688,1.07422 -6.67969,1.07422 -5.58594,0 -8.92578,-3.41797 -3.33985,-3.41797 -3.57422,-9.51172 l -0.0195,-2.46094 q 0,-4.19921 1.48437,-7.32421 1.48438,-3.14453 4.23828,-4.82422 2.77344,-1.69922 6.40625,-1.69922 5.3125,0 8.24219,2.44141 2.94922,2.42187 3.4375,7.24609 h -6.60156 q -0.35156,-2.38281 -1.52344,-3.39844 -1.17187,-1.01562 -3.32031,-1.01562 -2.57813,0 -3.98438,2.1875 -1.40625,2.1875 -1.42578,6.24999 v 1.71875 q 0,4.25782 1.44532,6.40625 1.46484,2.12891 4.58984,2.12891 2.67578,0 3.98437,-1.19141 v -4.41406 h -4.76562 v -4.70703 h 11.62109 z"
         style="font-weight:900;font-size:40px;line-height:1.25;font-family:Roboto;-inkscape-font-specification:'Roboto Heavy';fill:#ffc3c3;fill-opacity:1;stroke:#510808;stroke-width:10;stroke-linecap:round;stroke-linejoin:round;stroke-miterlimit:4;stroke-dasharray:none;stroke-opacity:1;paint-order:stroke fill markers"
         id="path33635" />
    </g>
    <g
       id="g43755"
       transform="translate(45.654493,110.87522)">
      <path
         d="m 194.59441,114.85998 q -1.58204,1.75781 -4.62891,2.83203 -3.04688,1.07422 -6.67969,1.07422 -5.58594,0 -8.92578,-3.41797 -3.33984,-3.41797 -3.57422,-9.51172 l -0.0195,-2.46094 q 0,-4.199216 1.48438,-7.324216 1.48437,-3.144531 4.23828,-4.824219 2.77343,-1.699219 6.40625,-1.699219 5.3125,0 8.24218,2.441407 2.94922,2.421875 3.4375,7.246093 h -6.60156 q -0.35156,-2.382812 -1.52344,-3.398437 -1.17187,-1.015625 -3.32031,-1.015625 -2.57812,0 -3.98437,2.1875 -1.40625,2.1875 -1.42578,6.249996 v 1.71875 q 0,4.25782 1.44531,6.40625 1.46484,2.12891 4.58984,2.12891 2.67578,0 3.98438,-1.19141 v -4.41406 h -4.76563 v -4.70703 h 11.6211 z"
         style="font-weight:900;font-size:40px;line-height:1.25;font-family:Roboto;-inkscape-font-specification:'Roboto Heavy';fill:#ffc3c3;fill-opacity:1;stroke:#510808;stroke-width:10;stroke-linecap:round;stroke-linejoin:round;stroke-miterlimit:4;stroke-dasharray:none;stroke-opacity:1;paint-order:stroke fill markers"
         id="path33637" />
      <path
         d="m 220.88347,89.938103 v 18.613277 q 0,3.16407 -1.34766,5.48829 -1.34765,2.30468 -3.86719,3.51562 -2.51953,1.21094 -5.95703,1.21094 -5.19531,0 -8.18359,-2.69531 -2.98828,-2.69532 -3.04688,-7.38282 V 89.938103 h 6.89454 v 18.886717 q 0.11718,4.66797 4.33593,4.66797 2.12891,0 3.22266,-1.17187 1.09375,-1.17188 1.09375,-3.8086 V 89.938103 Z"
         style="font-weight:900;font-size:40px;line-height:1.25;font-family:Roboto;-inkscape-font-specification:'Roboto Heavy';fill:#ffc3c3;fill-opacity:1;stroke:#510808;stroke-width:10;stroke-linecap:round;stroke-linejoin:round;stroke-miterlimit:4;stroke-dasharray:none;stroke-opacity:1;paint-order:stroke fill markers"
         id="path33639" />
      <path
         d="m 242.79753,106.32482 h -10.78125 v 6.77735 h 12.73438 v 5.27343 H 225.16081 V 89.938103 h 19.62891 v 5.292968 h -12.77344 v 5.996099 h 10.78125 z"
         style="font-weight:900;font-size:40px;line-height:1.25;font-family:Roboto;-inkscape-font-specification:'Roboto Heavy';fill:#ffc3c3;fill-opacity:1;stroke:#510808;stroke-width:10;stroke-linecap:round;stroke-linejoin:round;stroke-miterlimit:4;stroke-dasharray:none;stroke-opacity:1;paint-order:stroke fill markers"
         id="path33641" />
      <path
         d="m 262.21159,110.81701 q 0,-1.50391 -1.07422,-2.34375 -1.05468,-0.83984 -3.73046,-1.73828 -2.67579,-0.89844 -4.375,-1.73828 -5.52735,-2.71485 -5.52735,-7.460941 0,-2.363281 1.36719,-4.160156 1.38672,-1.816407 3.90625,-2.8125 2.51953,-1.015625 5.66406,-1.015625 3.06641,0 5.48828,1.09375 2.44141,1.09375 3.78907,3.125 1.34765,2.011718 1.34765,4.609375 h -6.83594 q 0,-1.738282 -1.07421,-2.695313 -1.05469,-0.957031 -2.8711,-0.957031 -1.83594,0 -2.91015,0.820312 -1.05469,0.800782 -1.05469,2.050782 0,1.09375 1.17187,1.992187 1.17188,0.87891 4.1211,1.83594 2.94922,0.9375 4.84375,2.03125 4.60937,2.65625 4.60937,7.32422 0,3.73047 -2.8125,5.85937 -2.8125,2.12891 -7.71484,2.12891 -3.45703,0 -6.26953,-1.23047 -2.79297,-1.25 -4.21875,-3.39844 -1.40625,-2.16797 -1.40625,-4.98047 h 6.875 q 0,2.28516 1.17187,3.37891 1.19141,1.07422 3.84766,1.07422 1.69922,0 2.67578,-0.72266 0.99609,-0.74219 0.99609,-2.07031 z"
         style="font-weight:900;font-size:40px;line-height:1.25;font-family:Roboto;-inkscape-font-specification:'Roboto Heavy';fill:#ffc3c3;fill-opacity:1;stroke:#510808;stroke-width:10;stroke-linecap:round;stroke-linejoin:round;stroke-miterlimit:4;stroke-dasharray:none;stroke-opacity:1;paint-order:stroke fill markers"
         id="path33643" />
      <path
         d="m 287.25066,110.81701 q 0,-1.50391 -1.07422,-2.34375 -1.05469,-0.83984 -3.73047,-1.73828 -2.67578,-0.89844 -4.375,-1.73828 -5.52735,-2.71485 -5.52735,-7.460941 0,-2.363281 1.36719,-4.160156 1.38672,-1.816407 3.90625,-2.8125 2.51953,-1.015625 5.66406,-1.015625 3.06641,0 5.48829,1.09375 2.4414,1.09375 3.78906,3.125 1.34765,2.011718 1.34765,4.609375 h -6.83593 q 0,-1.738282 -1.07422,-2.695313 -1.05469,-0.957031 -2.8711,-0.957031 -1.83593,0 -2.91015,0.820312 -1.05469,0.800782 -1.05469,2.050782 0,1.09375 1.17188,1.992187 1.17187,0.87891 4.12109,1.83594 2.94922,0.9375 4.84375,2.03125 4.60937,2.65625 4.60937,7.32422 0,3.73047 -2.8125,5.85937 -2.8125,2.12891 -7.71484,2.12891 -3.45703,0 -6.26953,-1.23047 -2.79297,-1.25 -4.21875,-3.39844 -1.40625,-2.16797 -1.40625,-4.98047 h 6.875 q 0,2.28516 1.17187,3.37891 1.19141,1.07422 3.84766,1.07422 1.69922,0 2.67578,-0.72266 0.9961,-0.74219 0.9961,-2.07031 z"
         style="font-weight:900;font-size:40px;line-height:1.25;font-family:Roboto;-inkscape-font-specification:'Roboto Heavy';fill:#ffc3c3;fill-opacity:1;stroke:#510808;stroke-width:10;stroke-linecap:round;stroke-linejoin:round;stroke-miterlimit:4;stroke-dasharray:none;stroke-opacity:1;paint-order:stroke fill markers"
         id="path33645" />
      <path
         d="m 308.18816,108.33654 h -3.71094 v 10.03906 h -6.85547 V 89.938103 h 11.19141 q 5.05859,0 7.91015,2.246093 2.85156,2.246094 2.85156,6.347657 0,2.968747 -1.21093,4.921877 -1.19141,1.95312 -3.75,3.16406 l 5.9375,11.46484 v 0.29297 h -7.34375 z m -3.71094,-5.29297 h 4.33594 q 1.95312,0 2.92968,-1.01562 0.9961,-1.03516 0.9961,-2.871097 0,-1.835938 -0.9961,-2.871094 -0.99609,-1.054688 -2.92968,-1.054688 h -4.33594 z"
         style="font-weight:900;font-size:40px;line-height:1.25;font-family:Roboto;-inkscape-font-specification:'Roboto Heavy';fill:#ffc3c3;fill-opacity:1;stroke:#510808;stroke-width:10;stroke-linecap:round;stroke-linejoin:round;stroke-miterlimit:4;stroke-dasharray:none;stroke-opacity:1;paint-order:stroke fill markers"
         id="path33647" />
    </g>
    <path
       style="display:inline;fill:none;stroke:#510808;stroke-width:4.99999;stroke-linecap:butt;stroke-linejoin:miter;stroke-miterlimit:4;stroke-dasharray:none;stroke-opacity:1"
       d="m 166.96635,207.89045 c -0.67194,-4.67287 0.97286,-9.62247 4.30799,-12.96375 3.33513,-3.34128 8.2817,-4.9952 12.9558,-4.33187 2.79405,0.39652 5.47114,1.58604 7.63811,3.39386 2.16696,1.80782 3.81708,4.22833 4.70801,6.90606 0.89094,2.67772 1.01991,5.60434 0.368,8.35006 -0.65191,2.74572 -2.0827,5.30201 -4.08223,7.29345"
       id="path876"
       inkscape:path-effect="#path-effect878"
       inkscape:original-d="m 166.96635,207.89045 c 4.7e-4,-5.76475 17.26425,-11.52997 17.26379,-17.29562 -4.5e-4,-5.76567 4.6e-4,17.29607 8.63189,25.94343"
       sodipodi:nodetypes="ccc" />
    <path
       style="display:inline;fill:none;stroke:#510808;stroke-width:4.99999;stroke-linecap:butt;stroke-linejoin:miter;stroke-miterlimit:4;stroke-dasharray:none;stroke-opacity:1"
       d="m 210.12582,216.53826 c -34.52758,0 -34.52758,0 -34.52758,0 l 8.6319,8.6478 8.63189,-8.6478"
       id="path1106" />
    <path
       style="display:inline;fill:none;stroke:#510808;stroke-width:4.99999;stroke-linecap:butt;stroke-linejoin:miter;stroke-miterlimit:4;stroke-dasharray:none;stroke-opacity:1"
       d="m 184.23014,225.18606 c 2.87775,2.88306 5.75506,5.76568 5.7548,8.64807 -2.6e-4,2.88239 -2.8775,5.76494 -5.7546,5.76515 -2.8771,2e-4 -5.75434,-2.88235 -5.75454,-5.76521 -2e-4,-2.88287 2.87704,-5.76541 5.75434,-8.64801"
       id="path1277"
       inkscape:path-effect="#path-effect1279"
       inkscape:original-d="m 184.23014,225.18606 c 2.87775,2.88306 5.75507,5.76567 8.63189,8.64781 -2.87689,2.88311 -5.75414,5.76565 -8.63189,8.64781 -2.87689,-2.88221 -5.75414,-5.76475 -8.6319,-8.64781 2.87782,-2.88221 5.75506,-5.76475 8.6319,-8.64781" />
  </g>
</svg>
